<mxfile host="app.diagrams.net" modified="2024-06-11T20:18:59.977Z" agent="Mozilla/5.0 (Macintosh; Intel Mac OS X 10_15_7) AppleWebKit/537.36 (KHTML, like Gecko) Chrome/121.0.0.0 Safari/537.36" etag="fyQdPiM9awkQdemBeUni" version="24.3.0" type="device">
  <diagram name="Page-1" id="82WoCepeNb8VyPyOYVg6">
    <mxGraphModel dx="1026" dy="657" grid="1" gridSize="10" guides="1" tooltips="1" connect="1" arrows="1" fold="1" page="1" pageScale="1" pageWidth="827" pageHeight="1169" math="0" shadow="0">
      <root>
        <mxCell id="0" />
        <mxCell id="1" parent="0" />
        <mxCell id="fjzKiK_bnsWZGunLnMp2-1" value="&lt;span style=&quot;font-size: 29px;&quot;&gt;A&lt;/span&gt;" style="ellipse;whiteSpace=wrap;html=1;aspect=fixed;" vertex="1" parent="1">
          <mxGeometry x="190" y="190" width="80" height="80" as="geometry" />
        </mxCell>
        <mxCell id="fjzKiK_bnsWZGunLnMp2-6" value="&lt;span style=&quot;font-size: 29px;&quot;&gt;B&lt;/span&gt;" style="ellipse;whiteSpace=wrap;html=1;aspect=fixed;" vertex="1" parent="1">
          <mxGeometry x="510" y="80" width="80" height="80" as="geometry" />
        </mxCell>
        <mxCell id="fjzKiK_bnsWZGunLnMp2-7" value="&lt;font style=&quot;font-size: 29px;&quot;&gt;C&lt;/font&gt;" style="ellipse;whiteSpace=wrap;html=1;aspect=fixed;" vertex="1" parent="1">
          <mxGeometry x="700" y="260" width="80" height="80" as="geometry" />
        </mxCell>
        <mxCell id="fjzKiK_bnsWZGunLnMp2-8" value="&lt;font style=&quot;font-size: 29px;&quot;&gt;E&lt;/font&gt;" style="ellipse;whiteSpace=wrap;html=1;aspect=fixed;" vertex="1" parent="1">
          <mxGeometry x="500" y="430" width="80" height="80" as="geometry" />
        </mxCell>
        <mxCell id="fjzKiK_bnsWZGunLnMp2-9" value="&lt;font style=&quot;font-size: 29px;&quot;&gt;F&lt;/font&gt;" style="ellipse;whiteSpace=wrap;html=1;aspect=fixed;" vertex="1" parent="1">
          <mxGeometry x="250" y="510" width="80" height="80" as="geometry" />
        </mxCell>
        <mxCell id="fjzKiK_bnsWZGunLnMp2-10" value="&lt;font style=&quot;font-size: 29px;&quot;&gt;D&lt;/font&gt;" style="ellipse;whiteSpace=wrap;html=1;aspect=fixed;" vertex="1" parent="1">
          <mxGeometry x="390" y="290" width="80" height="80" as="geometry" />
        </mxCell>
        <mxCell id="fjzKiK_bnsWZGunLnMp2-12" value="" style="endArrow=none;html=1;rounded=0;" edge="1" parent="1" source="fjzKiK_bnsWZGunLnMp2-6" target="fjzKiK_bnsWZGunLnMp2-1">
          <mxGeometry width="50" height="50" relative="1" as="geometry">
            <mxPoint x="360" y="310" as="sourcePoint" />
            <mxPoint x="410" y="260" as="targetPoint" />
          </mxGeometry>
        </mxCell>
        <mxCell id="fjzKiK_bnsWZGunLnMp2-20" value="&lt;font style=&quot;font-size: 20px;&quot;&gt;5&lt;/font&gt;" style="edgeLabel;html=1;align=center;verticalAlign=middle;resizable=0;points=[];" vertex="1" connectable="0" parent="fjzKiK_bnsWZGunLnMp2-12">
          <mxGeometry x="0.0747" relative="1" as="geometry">
            <mxPoint as="offset" />
          </mxGeometry>
        </mxCell>
        <mxCell id="fjzKiK_bnsWZGunLnMp2-13" value="" style="endArrow=none;html=1;rounded=0;" edge="1" parent="1" source="fjzKiK_bnsWZGunLnMp2-7" target="fjzKiK_bnsWZGunLnMp2-10">
          <mxGeometry width="50" height="50" relative="1" as="geometry">
            <mxPoint x="522" y="143" as="sourcePoint" />
            <mxPoint x="278" y="227" as="targetPoint" />
          </mxGeometry>
        </mxCell>
        <mxCell id="fjzKiK_bnsWZGunLnMp2-23" value="&lt;span style=&quot;font-size: 20px;&quot;&gt;7&lt;/span&gt;" style="edgeLabel;html=1;align=center;verticalAlign=middle;resizable=0;points=[];" vertex="1" connectable="0" parent="fjzKiK_bnsWZGunLnMp2-13">
          <mxGeometry x="-0.0799" y="-2" relative="1" as="geometry">
            <mxPoint as="offset" />
          </mxGeometry>
        </mxCell>
        <mxCell id="fjzKiK_bnsWZGunLnMp2-14" value="" style="endArrow=none;html=1;rounded=0;" edge="1" parent="1" source="fjzKiK_bnsWZGunLnMp2-7" target="fjzKiK_bnsWZGunLnMp2-6">
          <mxGeometry width="50" height="50" relative="1" as="geometry">
            <mxPoint x="532" y="153" as="sourcePoint" />
            <mxPoint x="288" y="237" as="targetPoint" />
          </mxGeometry>
        </mxCell>
        <mxCell id="fjzKiK_bnsWZGunLnMp2-21" value="&lt;span style=&quot;font-size: 20px;&quot;&gt;12&lt;/span&gt;" style="edgeLabel;html=1;align=center;verticalAlign=middle;resizable=0;points=[];" vertex="1" connectable="0" parent="fjzKiK_bnsWZGunLnMp2-14">
          <mxGeometry x="0.164" y="2" relative="1" as="geometry">
            <mxPoint as="offset" />
          </mxGeometry>
        </mxCell>
        <mxCell id="fjzKiK_bnsWZGunLnMp2-15" value="" style="endArrow=none;html=1;rounded=0;" edge="1" parent="1" source="fjzKiK_bnsWZGunLnMp2-6" target="fjzKiK_bnsWZGunLnMp2-10">
          <mxGeometry width="50" height="50" relative="1" as="geometry">
            <mxPoint x="542" y="163" as="sourcePoint" />
            <mxPoint x="298" y="247" as="targetPoint" />
          </mxGeometry>
        </mxCell>
        <mxCell id="fjzKiK_bnsWZGunLnMp2-22" value="&lt;span style=&quot;font-size: 20px;&quot;&gt;3&lt;/span&gt;" style="edgeLabel;html=1;align=center;verticalAlign=middle;resizable=0;points=[];" vertex="1" connectable="0" parent="fjzKiK_bnsWZGunLnMp2-15">
          <mxGeometry x="-0.0015" y="2" relative="1" as="geometry">
            <mxPoint as="offset" />
          </mxGeometry>
        </mxCell>
        <mxCell id="fjzKiK_bnsWZGunLnMp2-16" value="&lt;span style=&quot;font-size: 20px;&quot;&gt;2&lt;/span&gt;" style="endArrow=none;html=1;rounded=0;" edge="1" parent="1" source="fjzKiK_bnsWZGunLnMp2-8" target="fjzKiK_bnsWZGunLnMp2-7">
          <mxGeometry x="-0.0027" width="50" height="50" relative="1" as="geometry">
            <mxPoint x="552" y="173" as="sourcePoint" />
            <mxPoint x="308" y="257" as="targetPoint" />
            <mxPoint as="offset" />
          </mxGeometry>
        </mxCell>
        <mxCell id="fjzKiK_bnsWZGunLnMp2-17" value="" style="endArrow=none;html=1;rounded=0;" edge="1" parent="1" source="fjzKiK_bnsWZGunLnMp2-1" target="fjzKiK_bnsWZGunLnMp2-9">
          <mxGeometry width="50" height="50" relative="1" as="geometry">
            <mxPoint x="562" y="183" as="sourcePoint" />
            <mxPoint x="318" y="267" as="targetPoint" />
          </mxGeometry>
        </mxCell>
        <mxCell id="fjzKiK_bnsWZGunLnMp2-26" value="&lt;span style=&quot;font-size: 20px;&quot;&gt;10&lt;/span&gt;" style="edgeLabel;html=1;align=center;verticalAlign=middle;resizable=0;points=[];" vertex="1" connectable="0" parent="fjzKiK_bnsWZGunLnMp2-17">
          <mxGeometry x="-0.1346" y="4" relative="1" as="geometry">
            <mxPoint as="offset" />
          </mxGeometry>
        </mxCell>
        <mxCell id="fjzKiK_bnsWZGunLnMp2-18" value="" style="endArrow=none;html=1;rounded=0;" edge="1" parent="1" source="fjzKiK_bnsWZGunLnMp2-10" target="fjzKiK_bnsWZGunLnMp2-9">
          <mxGeometry width="50" height="50" relative="1" as="geometry">
            <mxPoint x="572" y="193" as="sourcePoint" />
            <mxPoint x="328" y="277" as="targetPoint" />
          </mxGeometry>
        </mxCell>
        <mxCell id="fjzKiK_bnsWZGunLnMp2-25" value="&lt;span style=&quot;font-size: 20px;&quot;&gt;2&lt;/span&gt;" style="edgeLabel;html=1;align=center;verticalAlign=middle;resizable=0;points=[];" vertex="1" connectable="0" parent="fjzKiK_bnsWZGunLnMp2-18">
          <mxGeometry x="-0.2707" y="-3" relative="1" as="geometry">
            <mxPoint as="offset" />
          </mxGeometry>
        </mxCell>
        <mxCell id="fjzKiK_bnsWZGunLnMp2-19" value="" style="endArrow=none;html=1;rounded=0;" edge="1" parent="1" source="fjzKiK_bnsWZGunLnMp2-8" target="fjzKiK_bnsWZGunLnMp2-9">
          <mxGeometry width="50" height="50" relative="1" as="geometry">
            <mxPoint x="582" y="203" as="sourcePoint" />
            <mxPoint x="338" y="287" as="targetPoint" />
          </mxGeometry>
        </mxCell>
        <mxCell id="fjzKiK_bnsWZGunLnMp2-24" value="&lt;span style=&quot;font-size: 20px;&quot;&gt;8&lt;/span&gt;" style="edgeLabel;html=1;align=center;verticalAlign=middle;resizable=0;points=[];" vertex="1" connectable="0" parent="fjzKiK_bnsWZGunLnMp2-19">
          <mxGeometry x="0.1311" y="5" relative="1" as="geometry">
            <mxPoint as="offset" />
          </mxGeometry>
        </mxCell>
      </root>
    </mxGraphModel>
  </diagram>
</mxfile>
